HIERARCHY
ROOT Hips
{
	OFFSET	0.00	0.00	0.00
	CHANNELS 6 Xposition Yposition Zposition Zrotation Xrotation Yrotation
	JOINT LeftUpLeg
	{
		OFFSET	 0.126116	-0.065224	 0.014019
		CHANNELS 3 Zrotation Xrotation Yrotation
		JOINT LeftLeg
		{
			OFFSET	 0.000000	 0.569914	 0.000000
			CHANNELS 3 Zrotation Xrotation Yrotation
			JOINT LeftFoot
			{
				OFFSET	 0.000000	 0.544423	 0.000000
				CHANNELS 3 Zrotation Xrotation Yrotation
				JOINT LeftToeBase
				{
					OFFSET	 0.000000	 0.207117	 0.000000
					CHANNELS 3 Zrotation Xrotation Yrotation
					End Site
					{
						OFFSET	 0.000000	 0.207117	 0.000000
					}
				}
			}
		}
	}
	JOINT RightUpLeg
	{
		OFFSET	-0.124023	-0.065224	 0.008373
		CHANNELS 3 Zrotation Xrotation Yrotation
		JOINT RightLeg
		{
			OFFSET	 0.000000	 0.570047	 0.000000
			CHANNELS 3 Zrotation Xrotation Yrotation
			JOINT RightFoot
			{
				OFFSET	 0.000000	 0.544354	 0.000000
				CHANNELS 3 Zrotation Xrotation Yrotation
				JOINT RightToeBase
				{
					OFFSET	 0.000000	 0.207540	 0.000000
					CHANNELS 3 Zrotation Xrotation Yrotation
					End Site
					{
						OFFSET	 0.000000	 0.207540	 0.000000
					}
				}
			}
		}
	}
	JOINT Spine
	{
		OFFSET	 0.000184	 0.117403	 0.007763
		CHANNELS 3 Zrotation Xrotation Yrotation
		JOINT Spine1
		{
			OFFSET	 0.000000	 0.137269	 0.000000
			CHANNELS 3 Zrotation Xrotation Yrotation
			JOINT Spine2
			{
				OFFSET	 0.000000	 0.156879	 0.000000
				CHANNELS 3 Zrotation Xrotation Yrotation
				JOINT LeftShoulder
				{
					OFFSET	 0.080501	 0.160143	 0.002496
					CHANNELS 3 Zrotation Xrotation Yrotation
					JOINT LeftArm
					{
						OFFSET	 0.000000	 0.164363	 0.000000
						CHANNELS 3 Zrotation Xrotation Yrotation
						JOINT LeftForeArm
						{
							OFFSET	 0.000000	 0.364576	 0.000000
							CHANNELS 3 Zrotation Xrotation Yrotation
							JOINT LeftHand
							{
								OFFSET	 0.000000	 0.360812	 0.000000
								CHANNELS 3 Zrotation Xrotation Yrotation
								JOINT LeftHandIndex1
								{
									OFFSET	 0.000000	 0.086006	 0.000000
									CHANNELS 3 Zrotation Xrotation Yrotation
									JOINT LeftHandIndex2
									{
										OFFSET	 0.000000	 0.047237	 0.000000
										CHANNELS 3 Zrotation Xrotation Yrotation
										JOINT LeftHandIndex3
										{
											OFFSET	-0.004284	 0.038165	 0.000551
											CHANNELS 3 Zrotation Xrotation Yrotation
											End Site
											{
												OFFSET	-0.004284	 0.038165	 0.000551
											}
										}
									}
								}
							}
						}
					}
				}
				JOINT Neck
				{
					OFFSET	 0.000000	 0.176489	 0.000000
					CHANNELS 3 Zrotation Xrotation Yrotation
					JOINT Head
					{
						OFFSET	 0.000000	 0.077941	 0.001747
						CHANNELS 3 Zrotation Xrotation Yrotation
						End Site
						{
							OFFSET	 0.000000	 0.077941	 0.001747
						}
					}
				}
				JOINT RightShoulder
				{
					OFFSET	-0.080363	 0.159706	-0.000306
					CHANNELS 3 Zrotation Xrotation Yrotation
					JOINT RightArm
					{
						OFFSET	 0.000000	 0.164196	 0.000000
						CHANNELS 3 Zrotation Xrotation Yrotation
						JOINT RightForeArm
						{
							OFFSET	 0.000000	 0.365611	 0.000000
							CHANNELS 3 Zrotation Xrotation Yrotation
							JOINT RightHand
							{
								OFFSET	 0.000000	 0.360648	 0.000000
								CHANNELS 3 Zrotation Xrotation Yrotation
								JOINT RightHandIndex1
								{
									OFFSET	 0.000000	 0.069977	 0.000000
									CHANNELS 3 Zrotation Xrotation Yrotation
									JOINT RightHandIndex2
									{
										OFFSET	 0.000000	 0.052305	 0.000000
										CHANNELS 3 Zrotation Xrotation Yrotation
										JOINT RightHandIndex3
										{
											OFFSET	 0.009002	 0.042196	 0.000782
											CHANNELS 3 Zrotation Xrotation Yrotation
											End Site
											{
												OFFSET	 0.009002	 0.042196	 0.000782
											}
										}
									}
								}
							}
						}
					}
				}
			}
		}
	}
}
MOTION
Frames:    6
Frame Time: 0.03333334
 0.000854	 1.271277	 0.064374	 0.366965	-0.571711	 179.992400	-175.186400	 1.969119	-17.851070	 2.319153	-10.813940	-0.037909	-5.847007	 69.500760	 4.609032	 1.292262	 28.425850	-2.713146	 175.895400	 1.755763	 17.900250	-2.061916	-9.926468	 0.087163	 5.720847	 68.927240	-4.651738	-1.288183	 28.361890	 2.710176	 0.318078	 2.218000	-18.094140	 1.656808	 3.377121	-4.195444	-1.635389	-4.335097	 12.254350	-101.478000	 1.740668	 90.353370	 0.780022	 58.379040	 1.265843	 4.579605	 4.403770	-0.557945	 5.948050	 1.078792	-28.787650	-6.580301	 5.266122	 0.000000	 0.000000	 0.000000	 0.000000	 0.000000	 0.000000	 0.000000	 0.089846	-3.783161	 0.005928	-0.023790	 0.897504	 3.036701	 101.796200	-0.213314	-89.955450	-47.092380	 3.208209	 55.793350	-43.717720	 44.200760	 16.719280	 1.086418	 19.789660	-52.260060	 15.208500	 5.323790	 0.000000	 0.000000	 0.000000	 0.000000	 0.000000	 0.000000	 0.000000
 0.000885	 1.271306	 0.064351	 0.351580	-0.559142	 179.991100	-175.205100	 1.918289	-17.851610	 2.303083	-10.740800	-0.040913	-5.831975	 69.465070	 4.600617	 1.292262	 28.425850	-2.713146	 175.881300	 1.739480	 17.899290	-2.061036	-9.922322	 0.087313	 5.722311	 68.927050	-4.654379	-1.288183	 28.361890	 2.710176	 0.153968	 2.210785	-12.787300	 1.514337	 3.488560	-3.833540	-1.486073	-4.483926	 11.186740	-101.478000	 1.740677	 90.353400	 0.541004	 58.147530	 1.457884	 4.747219	 4.409608	-0.687081	 6.534087	 1.179127	-26.391730	-6.580301	 5.266122	 0.000000	 0.000000	 0.000000	 0.000000	 0.000000	 0.000000	 0.000000	 0.089846	-3.783161	 0.005928	-0.022859	 0.946161	 2.767976	 101.796200	-0.213320	-89.955440	-53.629010	 0.716248	 58.983520	-33.632010	 37.437520	 9.474811	-1.989651	 21.361730	-54.872550	 15.208500	 5.323790	 0.000000	 0.000000	 0.000000	 0.000000	 0.000000	 0.000000	 0.000000
 0.000926	 1.271337	 0.064331	 0.332831	-0.547700	 179.989000	-175.227200	 1.864106	-17.852320	 2.284999	-10.658440	-0.044277	-5.813294	 69.424520	 4.589071	 1.292262	 28.425850	-2.713146	 175.863500	 1.729070	 17.898190	-2.062063	-9.927160	 0.087136	 5.726742	 68.931230	-4.659528	-1.288183	 28.361890	 2.710176	 0.006354	 2.192631	-7.805087	 1.357473	 3.593637	-3.438384	-1.325671	-4.624382	 10.027850	-101.478000	 1.740678	 90.353390	 0.328495	 58.001680	 1.637505	 4.892630	 4.415791	-0.798844	 7.192034	 1.263928	-23.799200	-6.580301	 5.266122	 0.000000	 0.000000	 0.000000	 0.000000	 0.000000	 0.000000	 0.000000	 0.089846	-3.783161	 0.005928	-0.021523	 0.995365	 2.477366	 101.796200	-0.213315	-89.955440	-59.535340	-1.266038	 61.131600	-25.552820	 30.144680	 4.362641	-5.278344	 22.283330	-57.666450	 15.208500	 5.323790	 0.000000	 0.000000	 0.000000	 0.000000	 0.000000	 0.000000	 0.000000
 0.000983	 1.271370	 0.064310	 0.308461	-0.536182	 179.987700	-175.255400	 1.801814	-17.853410	 2.263299	-10.559560	-0.048267	-5.794133	 69.375220	 4.578695	 1.292262	 28.425850	-2.713146	 175.840000	 1.724605	 17.896760	-2.065740	-9.944514	 0.086508	 5.730858	 68.942150	-4.663187	-1.288183	 28.361890	 2.710176	-0.134994	 2.165136	-2.779123	 1.171357	 3.697681	-2.973157	-1.139539	-4.764380	 8.668522	-101.478000	 1.740667	 90.353380	 0.126232	 57.920960	 1.816310	 5.031307	 4.420973	-0.905623	 7.975411	 1.361196	-20.764640	-6.580301	 5.266122	 0.000000	 0.000000	 0.000000	 0.000000	 0.000000	 0.000000	 0.000000	 0.089846	-3.783161	 0.005928	-0.019548	 1.047554	 2.137982	 101.796200	-0.213314	-89.955450	-65.457320	-3.010338	 62.654770	-18.290270	 21.928550	 0.527335	-9.090055	 22.731720	-60.666770	 15.208500	 5.323790	 0.000000	 0.000000	 0.000000	 0.000000	 0.000000	 0.000000	 0.000000
 0.001060	 1.271402	 0.064290	 0.277176	-0.524283	 179.986300	-175.290800	 1.730507	-17.854840	 2.237784	-10.443210	-0.052923	-5.772255	 69.316790	 4.567000	 1.292262	 28.425850	-2.713146	 175.809200	 1.728461	 17.895000	-2.073145	-9.979423	 0.085226	 5.737817	 68.962230	-4.668406	-1.288183	 28.361890	 2.710176	-0.267378	 2.131681	 2.207593	 0.952653	 3.796124	-2.431265	-0.925574	-4.896687	 7.091661	-101.478000	 1.740678	 90.353390	-0.058492	 57.906410	 1.985517	 5.164957	 4.427236	-1.008169	 8.883627	 1.492089	-17.248770	-6.580301	 5.266122	 0.000000	 0.000000	 0.000000	 0.000000	 0.000000	 0.000000	 0.000000	 0.089846	-3.783161	 0.005928	-0.016761	 1.099799	 1.746161	 101.796200	-0.213329	-89.955420	-71.631580	-4.544224	 63.592900	-11.325580	 12.586380	-2.234025	-13.629410	 22.851630	-63.656390	 15.208500	 5.323790	 0.000000	 0.000000	 0.000000	 0.000000	 0.000000	 0.000000	 0.000000
 0.001140	 1.271448	 0.064272	 0.249158	-0.515174	 179.983700	-175.323000	 1.657760	-17.856380	 2.210391	-10.318200	-0.057855	-5.745203	 69.253750	 4.550332	 1.292262	 28.425850	-2.713146	 175.781400	 1.731109	 17.893150	-2.078630	-10.005280	 0.084272	 5.745502	 68.977070	-4.675089	-1.288183	 28.361890	 2.710176	-0.369989	 2.099219	 6.556112	 0.733080	 3.873595	-1.880708	-0.712849	-5.000669	 5.498187	-101.478000	 1.740658	 90.353380	-0.197370	 57.954610	 2.117579	 5.279239	 4.431589	-1.096209	 9.787759	 1.657339	-13.697490	-6.580301	 5.266122	 0.000000	 0.000000	 0.000000	 0.000000	 0.000000	 0.000000	 0.000000	 0.089846	-3.783161	 0.005928	-0.013485	 1.142807	 1.352079	 101.796200	-0.213322	-89.955440	-76.630810	-5.619520	 64.025280	-5.972089	 4.614923	-3.630168	-17.806880	 22.113370	-66.327360	 15.208500	 5.323790	 0.000000	 0.000000	 0.000000	 0.000000	 0.000000	 0.000000	 0.000000
